# xmcd CD database file
#
# Track frame offsets:
#	150
#	26060
#	51232
#	76625
#	94792
#	110372
#	136487
#	169437
#	194335
#	213395
#	230152
#
# Disc length: 3425 seconds
#
# Revision: 1
# Processed by: cddbd v1.5.2PL0 Copyright (c) Steve Scherf et al.
# Submitted via: CDex 1.70beta2
#
DISCID=980d5f0b
DTITLE=THERiON - SIRIUS B
DYEAR=2004
DGENRE=Heavy Metal
TTITLE0=THE BLOOD OF KINGU
TTITLE1=SON OF THE SUN
TTITLE2=THE KHLYSTI EVANGELIST
TTITLE3=DARK VENUS PERSEPHONE
TTITLE4=KALI YUGA PART 1
TTITLE5=KALI YUGA PART 2
TTITLE6=THE WONDROUS WORLD OF PUNT
TTITLE7=MELEK TAUS
TTITLE8=CALL OF DAGON
TTITLE9=SIRIUS B
TTITLE10=VOYAGE OF GURDJIEFF (THE FOURTH WAY)
EXTD=YEAR: 2004
EXTT0=
EXTT1=
EXTT2=
EXTT3=
EXTT4=
EXTT5=
EXTT6=
EXTT7=
EXTT8=
EXTT9=
EXTT10=
PLAYORDER=
